<?xml version="1.0" standalone="no"?>
<!DOCTYPE svg PUBLIC "-//W3C//DTD SVG 20010904//EN"
 "http://www.w3.org/TR/2001/REC-SVG-20010904/DTD/svg10.dtd">
<svg version="1.0" xmlns="http://www.w3.org/2000/svg"
 width="256.000000pt" height="256.000000pt" viewBox="0 0 256.000000 256.000000"
 preserveAspectRatio="xMidYMid meet">
<metadata>
Created by potrace 1.14, written by Peter Selinger 2001-2017
</metadata>
<g transform="translate(0.000000,256.000000) scale(0.100000,-0.100000)"
fill="#000000" stroke="none">
<path d="M1622 2165 c-16 -14 -34 -25 -38 -25 -5 0 -26 -16 -47 -35 -21 -19
-47 -37 -58 -40 -10 -4 -19 -10 -19 -15 0 -4 -9 -6 -19 -3 -22 6 -33 49 -18
73 30 49 -33 71 -76 27 -27 -27 -30 -28 -59 -14 -64 31 -144 -12 -154 -84 -7
-46 -68 -102 -136 -125 -10 -4 -18 -10 -18 -15 0 -18 -18 -8 -24 14 -7 26 -74
107 -89 107 -5 0 -25 -11 -43 -25 -18 -14 -36 -25 -40 -25 -4 0 -15 -10 -25
-22 -11 -11 -19 -18 -19 -14 0 14 -139 -134 -145 -154 -4 -11 -10 -20 -14 -20
-5 0 -41 -84 -46 -110 -8 -37 -18 -110 -19 -136 -1 -36 -14 -54 -68 -96 -27
-22 -35 -36 -38 -65 -14 -170 19 -276 98 -321 13 -7 27 -10 32 -7 18 11 11 -2
-19 -35 -45 -51 -52 -60 -46 -60 3 0 -1 -12 -9 -27 -16 -33 -18 -146 -3 -183
6 -14 37 -64 69 -112 32 -48 58 -91 58 -97 0 -19 25 -17 64 4 23 12 44 23 49
23 4 1 8 2 10 3 1 0 18 2 37 4 19 2 49 6 65 9 108 16 102 17 109 -15 7 -35 59
-90 104 -110 17 -7 29 -16 26 -20 -2 -4 4 -6 14 -5 9 0 16 -5 14 -12 -1 -8 2
-11 7 -8 5 3 20 -7 34 -23 l24 -29 34 37 c37 41 73 64 83 54 3 -3 6 -1 6 5 0
7 6 12 13 12 6 0 33 11 58 23 32 17 52 21 67 16 12 -5 22 -5 22 0 0 4 22 6 50
3 87 -7 158 18 334 118 22 12 59 38 83 57 25 20 47 32 54 27 8 -4 9 -3 5 5 -4
6 12 31 38 58 25 26 46 54 46 62 0 8 3 11 6 8 7 -6 39 43 50 75 4 10 10 18 15
18 5 0 8 3 7 8 -1 4 5 23 14 42 22 49 45 115 62 182 15 60 18 278 4 278 -4 0
-7 3 -6 8 5 19 -50 143 -80 181 l-19 23 -23 -38 c-43 -74 -60 -104 -55 -104 2
0 -7 -24 -20 -52 -14 -29 -25 -61 -25 -70 0 -25 -17 -23 -25 3 -5 15 -10 18
-20 9 -11 -9 -13 -7 -11 12 2 13 6 34 10 48 9 37 16 98 19 166 3 75 18 97 55
83 18 -7 28 -7 30 0 2 6 12 11 21 11 25 0 68 55 65 82 -1 13 -3 31 -3 40 -1 9
-8 24 -17 32 -8 9 -12 16 -7 16 4 0 -1 6 -12 14 -23 15 -74 31 -112 35 -7 1
-10 11 -7 26 5 30 -34 75 -65 75 -20 0 -37 -32 -26 -49 3 -6 -4 -19 -15 -29
-38 -35 -58 -18 -111 97 -74 160 -70 156 -117 116z m318 -461 c0 -2 -9 0 -20
6 -11 6 -20 13 -20 16 0 2 9 0 20 -6 11 -6 20 -13 20 -16z"/>
</g>
</svg>
